
<svg xmlns="http://www.w3.org/2000/svg" version="1.1" xmlns:xlink="http://www.w3.org/1999/xlink" preserveAspectRatio="none" x="0px" y="0px" width="1272px" height="440px" viewBox="0 0 1272 440">
<defs>
<g id="Layer1_0_FILL">
<path fill="#F5F5E8" stroke="none" d="
M 224 262.9
L 222.9 388.05 312.4 388.05 312.4 262.9 224 262.9
M 276.35 311.6
Q 278.45 314.35 279.55 317.4 280.3 319.6 280.3 322.6
L 280.3 325.95
Q 280.3 329.65 278.8 333.1 277.3 336.6 273.75 339.15 271.15 341.05 267.7 341.05
L 255.7 341.05
Q 254.9 341.05 254.6 340.7 254.25 340.35 254.25 339.85 254.25 339.3 254.6 339 254.9 338.65 255.7 338.65
L 257.6 338.65 257.6 309.9 255.7 309.9
Q 254.9 309.9 254.6 309.6 254.25 309.25 254.25 308.7 254.25 308.15 254.6 307.85 254.9 307.5 255.7 307.5
L 267.7 307.5
Q 270.5 307.5 272.85 308.75 275.15 310 276.35 311.6
M 274.7 313.25
Q 273.75 312 271.9 310.95 270.05 309.9 267.9 309.9
L 259.85 309.9 259.85 338.65 267.9 338.65
Q 270.7 338.65 273.2 336.65 275.6 334.7 276.85 331.95 278.1 329.15 278.1 326.45
L 278.1 322.1
Q 278.1 319.85 277.4 318.1 276.45 315.55 274.7 313.25
M 15.3 388.05
L 104.8 388.05 104.8 262.9 16.4 262.9 15.3 388.05
M 48.25 307.85
Q 48.55 307.5 49.35 307.5
L 60.55 307.5 71.45 338.65 73.15 338.65
Q 73.95 338.65 74.3 339 74.65 339.3 74.65 339.85 74.65 340.35 74.3 340.7 73.95 341.05 73.15 341.05
L 64.85 341.05
Q 64.05 341.05 63.7 340.7 63.35 340.35 63.35 339.85 63.35 339.3 63.7 339 64.05 338.65 64.85 338.65
L 69.1 338.65 66.05 329.85 51.45 329.85 48.45 338.65 52.7 338.65
Q 53.5 338.65 53.85 339 54.2 339.3 54.2 339.85 54.2 340.35 53.85 340.7 53.5 341.05 52.7 341.05
L 44.4 341.05
Q 43.6 341.05 43.25 340.7 42.9 340.35 42.9 339.85 42.9 339.3 43.25 339 43.6 338.65 44.4 338.65
L 46.1 338.65 55.95 309.9 49.35 309.9
Q 48.55 309.9 48.25 309.6 47.9 309.25 47.9 308.7 47.9 308.15 48.25 307.85
M 59.05 309.9
L 58.25 309.9 52.3 327.45 65.2 327.45 59.05 309.9
M 208.6 186.8
L 208.6 61.65 120.2 61.65 119.1 186.8 208.6 186.8
M 177.7 107.45
Q 177.7 108 177.4 108.35 177.05 108.65 176.2 108.65
L 175.4 108.65 172.3 139.8 168.8 139.8 162.5 115.95 156.3 139.8 152.8 139.8 149.55 108.65 148.7 108.65
Q 147.9 108.65 147.55 108.35 147.25 108 147.25 107.45 147.25 106.9 147.55 106.6 147.9 106.25 148.7 106.25
L 157 106.25
Q 157.8 106.25 158.15 106.6 158.5 106.9 158.5 107.45 158.5 108 158.15 108.35 157.8 108.65 157 108.65
L 151.8 108.65 154.75 137.05 160.75 113.65 164.15 113.65 170.35 137.05 173.2 108.65 168 108.65
Q 167.2 108.65 166.85 108.35 166.5 108 166.5 107.45 166.5 106.9 166.85 106.6 167.2 106.25 168 106.25
L 176.2 106.25
Q 177.05 106.25 177.4 106.6 177.7 106.9 177.7 107.45
M 679.8 388.05
L 679.8 262.9 591.4 262.9 590.3 388.05 679.8 388.05
M 648.85 307.85
Q 649.2 308.15 649.2 308.7 649.2 309.25 648.85 309.6 648.5 309.9 647.75 309.9
L 642.45 309.9 642.45 331.2
Q 642.45 335.55 639.4 338.8 636.4 342 632.2 342 629.7 342 627.3 340.75 624.85 339.5 622 336.65
L 622 327.75
Q 622 326.9 622.3 326.55 622.6 326.15 623.1 326.15 623.6 326.15 623.9 326.55 624.25 326.9 624.25 327.75
L 624.2 335.5
Q 626.25 337.55 628.25 338.6 630.25 339.6 632.2 339.6 634.4 339.6 636.3 338.45 637.75 337.6 639 335.55 640.2 333.5 640.2 331.2
L 640.2 309.9 631.45 309.9
Q 630.65 309.9 630.3 309.6 629.95 309.25 629.95 308.7 629.95 308.15 630.3 307.85 630.65 307.5 631.45 307.5
L 647.75 307.5
Q 648.5 307.5 648.85 307.85
M 783.6 186.8
L 783.6 61.65 695.2 61.65 694.1 186.8 783.6 186.8
M 727.65 139.45
Q 727.3 139.1 727.3 138.6 727.3 138.05 727.65 137.75 728 137.4 728.8 137.4
L 736.45 137.4 736.45 108.65 728.8 108.65
Q 728 108.65 727.65 108.35 727.3 108 727.3 107.45 727.3 106.9 727.65 106.6 728 106.25 728.8 106.25
L 746.3 106.25
Q 747.1 106.25 747.4 106.6 747.75 106.9 747.75 107.45 747.75 108 747.4 108.35 747.1 108.65 746.3 108.65
L 738.65 108.65 738.65 137.4 746.3 137.4
Q 747.1 137.4 747.4 137.75 747.75 138.05 747.75 138.6 747.75 139.1 747.4 139.45 747.1 139.8 746.3 139.8
L 728.8 139.8
Q 728 139.8 727.65 139.45 Z"/>

<path fill="#000000" stroke="none" d="
M 279.55 317.4
Q 278.45 314.35 276.35 311.6 275.15 310 272.85 308.75 270.5 307.5 267.7 307.5
L 255.7 307.5
Q 254.9 307.5 254.6 307.85 254.25 308.15 254.25 308.7 254.25 309.25 254.6 309.6 254.9 309.9 255.7 309.9
L 257.6 309.9 257.6 338.65 255.7 338.65
Q 254.9 338.65 254.6 339 254.25 339.3 254.25 339.85 254.25 340.35 254.6 340.7 254.9 341.05 255.7 341.05
L 267.7 341.05
Q 271.15 341.05 273.75 339.15 277.3 336.6 278.8 333.1 280.3 329.65 280.3 325.95
L 280.3 322.6
Q 280.3 319.6 279.55 317.4
M 271.9 310.95
Q 273.75 312 274.7 313.25 276.45 315.55 277.4 318.1 278.1 319.85 278.1 322.1
L 278.1 326.45
Q 278.1 329.15 276.85 331.95 275.6 334.7 273.2 336.65 270.7 338.65 267.9 338.65
L 259.85 338.65 259.85 309.9 267.9 309.9
Q 270.05 309.9 271.9 310.95
M 49.35 307.5
Q 48.55 307.5 48.25 307.85 47.9 308.15 47.9 308.7 47.9 309.25 48.25 309.6 48.55 309.9 49.35 309.9
L 55.95 309.9 46.1 338.65 44.4 338.65
Q 43.6 338.65 43.25 339 42.9 339.3 42.9 339.85 42.9 340.35 43.25 340.7 43.6 341.05 44.4 341.05
L 52.7 341.05
Q 53.5 341.05 53.85 340.7 54.2 340.35 54.2 339.85 54.2 339.3 53.85 339 53.5 338.65 52.7 338.65
L 48.45 338.65 51.45 329.85 66.05 329.85 69.1 338.65 64.85 338.65
Q 64.05 338.65 63.7 339 63.35 339.3 63.35 339.85 63.35 340.35 63.7 340.7 64.05 341.05 64.85 341.05
L 73.15 341.05
Q 73.95 341.05 74.3 340.7 74.65 340.35 74.65 339.85 74.65 339.3 74.3 339 73.95 338.65 73.15 338.65
L 71.45 338.65 60.55 307.5 49.35 307.5
M 58.25 309.9
L 59.05 309.9 65.2 327.45 52.3 327.45 58.25 309.9
M 177.4 108.35
Q 177.7 108 177.7 107.45 177.7 106.9 177.4 106.6 177.05 106.25 176.2 106.25
L 168 106.25
Q 167.2 106.25 166.85 106.6 166.5 106.9 166.5 107.45 166.5 108 166.85 108.35 167.2 108.65 168 108.65
L 173.2 108.65 170.35 137.05 164.15 113.65 160.75 113.65 154.75 137.05 151.8 108.65 157 108.65
Q 157.8 108.65 158.15 108.35 158.5 108 158.5 107.45 158.5 106.9 158.15 106.6 157.8 106.25 157 106.25
L 148.7 106.25
Q 147.9 106.25 147.55 106.6 147.25 106.9 147.25 107.45 147.25 108 147.55 108.35 147.9 108.65 148.7 108.65
L 149.55 108.65 152.8 139.8 156.3 139.8 162.5 115.95 168.8 139.8 172.3 139.8 175.4 108.65 176.2 108.65
Q 177.05 108.65 177.4 108.35
M 649.2 308.7
Q 649.2 308.15 648.85 307.85 648.5 307.5 647.75 307.5
L 631.45 307.5
Q 630.65 307.5 630.3 307.85 629.95 308.15 629.95 308.7 629.95 309.25 630.3 309.6 630.65 309.9 631.45 309.9
L 640.2 309.9 640.2 331.2
Q 640.2 333.5 639 335.55 637.75 337.6 636.3 338.45 634.4 339.6 632.2 339.6 630.25 339.6 628.25 338.6 626.25 337.55 624.2 335.5
L 624.25 327.75
Q 624.25 326.9 623.9 326.55 623.6 326.15 623.1 326.15 622.6 326.15 622.3 326.55 622 326.9 622 327.75
L 622 336.65
Q 624.85 339.5 627.3 340.75 629.7 342 632.2 342 636.4 342 639.4 338.8 642.45 335.55 642.45 331.2
L 642.45 309.9 647.75 309.9
Q 648.5 309.9 648.85 309.6 649.2 309.25 649.2 308.7
M 727.3 138.6
Q 727.3 139.1 727.65 139.45 728 139.8 728.8 139.8
L 746.3 139.8
Q 747.1 139.8 747.4 139.45 747.75 139.1 747.75 138.6 747.75 138.05 747.4 137.75 747.1 137.4 746.3 137.4
L 738.65 137.4 738.65 108.65 746.3 108.65
Q 747.1 108.65 747.4 108.35 747.75 108 747.75 107.45 747.75 106.9 747.4 106.6 747.1 106.25 746.3 106.25
L 728.8 106.25
Q 728 106.25 727.65 106.6 727.3 106.9 727.3 107.45 727.3 108 727.65 108.35 728 108.65 728.8 108.65
L 736.45 108.65 736.45 137.4 728.8 137.4
Q 728 137.4 727.65 137.75 727.3 138.05 727.3 138.6 Z"/>

<path fill="#F5F4C8" stroke="none" d="
M 224 262.9
L 208.6 262.9 208.6 388.05 222.9 388.05 224 262.9
M 16.4 262.9
L 1 262.9 1 388.05 15.3 388.05 16.4 262.9
M 120.2 61.65
L 104.8 61.65 104.8 186.8 119.1 186.8 120.2 61.65
M 591.4 262.9
L 576 262.9 576 388.05 590.3 388.05 591.4 262.9
M 695.2 61.65
L 679.8 61.65 679.8 186.8 694.1 186.8 695.2 61.65 Z"/>
</g>

<g id="Layer0_0_FILL">
<path fill="#FFFFFF" stroke="none" d="
M 486.35 326.45
Q 486.35 326.55 486.5 326.95 486.65 327.3 486.75 327.7 486.9 328.1 487.1 328.5 487.25 328.9 487.25 328.95 487.3 329.25 487.4 329.9 487.55 330.55 487.7 331.2 487.85 331.9 488 332.45 488.1 333 488.1 333.2
L 488.35 336.1
Q 488.55 338.2 488.85 341.1 489.1 344 489.4 347.25 489.7 350.55 489.95 353.4 490.25 356.25 490.45 358.45 490.65 360.65 490.7 361.3 490.8 361.85 491.05 363.1 491.25 364.3 491.55 365.65 491.8 366.95 492.1 368.15 492.4 369.35 492.5 369.85 492.6 369.85 492.75 369.85
L 492.95 369.9
Q 494.45 369.9 494.9 369.85 495.35 369.85 495.35 368.65 495.35 366.85 495.1 365 494.85 363.2 494.3 361.3
L 519.1 361.3
Q 520.5 361.3 521 360.35 521.55 359.4 521.55 358.4 515.1 358.4 510.65 358.3 506.25 358.25 503.3 358.1 500.4 358 498.75 357.85 497.1 357.7 496.3 357.5 495.5 357.25 495.3 357.1 495.15 356.9 495.15 356.65 495.7 354.3 496.3 352.65 496.95 350.95 497.85 349.35 498.75 347.8 499.95 346.1 501.15 344.4 502.95 342.05 504.7 339.7 507.05 336.4 509.4 333.1 512.55 328.3 511.65 326.95 510.05 327.95 508.45 328.9 506.45 331.2 504.45 333.5 502.3 336.6 500.2 339.75 498.35 342.65 496.55 345.55 495.2 347.7 493.85 349.85 493.4 350.25
L 490.7 327.3
Q 490.7 326.95 490.5 326.55 490.3 326.1 490 325.65 489.75 325.25 489.35 324.95 489 324.65 488.55 324.65 487.8 324.65 487.15 325.15 486.5 325.7 486.35 326.45
M 453.4 330.6
Q 453.4 328.85 452.7 328.4 452.05 327.95 450.9 327.95 449.85 327.95 449.15 328.25 448.45 328.55 448.45 329.7 448.45 330.3 448.55 330.9 448.6 331.55 448.65 333 448.75 334.5 448.9 336.9 449.1 339.35 449.2 343.45 449.2322265625 344.3404296875 449.25 345.3 448.9689453125 345.3486328125 448.65 345.4 447.15 345.65 445.55 346.15 443.95 346.6 442.6 347.1 441.2 347.6 440.45 347.65 439.8 346.45 439.1 344.65 438.35 342.8 437.5 340.65 436.7 338.5 435.85 336.2 435.05 333.9 434.2 331.6 433.35 329.35 432.65 327.35 431.9 325.35 431.2 323.85 430.8 323.35 430.45 322.65 430.1 321.9 429.75 321.25 429.35 320.55 428.85 320.05 428.4 319.5 427.6 319.5 427.15 319.5 426.55 319.65 425.95 319.75 425.9 320.45 424.7 329.5 424 336.3 423.25 343.15 422.7 348.2 422.15 353.25 421.85 356.8 421.5 360.3 421.3 362.7 421.05 365.1 420.9 366.55 420.75 368.05 420.55 368.95
L 424.1 368.95
Q 424.2 367.45 424.45 365.95 424.55 364.8 424.65 363.45 424.8 362.1 424.9 361.3 425.2 359.3 426.55 358.15 427.9 357 429.75 356.3 431.65 355.6 433.65 355.1 435.65 354.65 437.1 354 438.2 355.45 438.95 357.6 439.65 359.8 440.35 362.3 441.05 364.8 441.85 367.25 442.65 369.75 443.8 371.7
L 445.6 369.15 440.85 351.15
Q 440.85 350.95 441.9 350.5 442.9 350.05 444.3 349.65 445.7 349.2 446.9 348.85 448.1 348.45 448.45 348.45 448.96015625 348.45 449.35 348.6 449.4609375 350.9259765625 449.55 353.6 449.7 359.65 449.85 368.1 449.85 370.7 451.6 370.7 455.65 370.7 459.6 369.1 463.5 367.5 467.35 365.45 471.2 363.4 475.1 361.45 479 359.5 483.1 358.8 483.5 358.2 483.75 357.7 484 357.25 484 356.6 483.9 356.05 483.65 355.8 483.35 355.5 482.95 355.45 482.55 355.4 482.1 355.4
L 481.3 355.4
Q 480.45 355.7 478.85 356.5 477.2 357.25 475.1 358.15 473 359.05 470.65 360.1 468.35 361.1 466.25 362.05 464.2 363 462.5 363.7 460.85 364.45 460.05 364.8 459.45 365.05 458.55 365.35 457.65 365.65 456.85 365.9 456 366.15 455.4 366.3 454.75 366.45 454.7 366.45
L 453.4 330.6
M 429.75 329.45
Q 430.2 329.7 430.25 329.75 431.3 332.1 432.2 334.55 433.1 337 433.85 339.6 434.6 342.15 435.25 344.65 435.95 347.15 436.5 349.45 435.85 350.55 434.7 351.35 433.55 352.2 432.2 352.75 430.8 353.3 429.3 353.65 427.8 354 426.5 354 426.5 350.2 426.9 346.55 427.25 342.95 427.6 339.2 427.7 338.15 427.85 336.6 428.05 335 428.15 333.5 428.3 332 428.4 330.9
L 428.5 329.75
Q 429.35 329.25 429.75 329.45
M 384.15 338.9
Q 383.05 342.2 381.9 345.85 380.7 349.45 379.5 353 378.3 356.6 377.25 359.5 376.2 362.4 375.5 364.3 374.75 366.25 374.5 366.45 371.65 358 369.65 351.95 367.7 345.95 366.35 341.8 365.05 337.7 364.25 335.2 363.45 332.75 362.9 331.3 362.35 329.9 362 329.3 361.6 328.7 361.05 328.3 360.65 328.5 360.1 328.95 359.6 329.35 359.05 329.8 358.55 330.3 358.15 330.7 357.7 331.15 357.6 331.5 359.45 334.3 360.85 337.7 362.2 341.1 363.2 344.75 364.25 348.45 365.15 352.25 366.05 356 366.95 359.4 367.9 362.85 369.05 365.75 370.2 368.65 371.8 370.7 371.65 370.85 372 371.15 372.4 371.45 373.15 371.55 373.9 371.65 374.9 371.45 375.85 371.25 376.8 370.35 377.75 369.5 378.55 367.75 379.35 365.95 379.75 363.05
L 388.6 334.95
Q 391.1 342.95 394.15 350.1 397.2 357.25 401.05 363.85 401.85 365.7 402.55 366.35 403.2 366.95 403.8 366.8 404.4 366.65 404.85 365.85 405.3 365.05 405.65 363.95 406 362.85 406.2 361.7 406.4 360.5 406.4 359.65
L 416.1 322.1
Q 415.6 321.05 415.05 320.55 414.5 320.1 414 320.1 413.45 320.1 413.1 320.45 412.7 320.75 412.55 321.3
L 402.8 359.65
Q 400.8 356.65 399.3 353 397.8 349.4 396.6 345.75 395.4 342.05 394.45 338.7 393.45 335.35 392.6 332.8 391.7 330.3 390.9 328.95 390.05 327.65 389.1 328.05 387.85 328.05 387.35 328.55 386.8 329.05 386.6 329.75 386.4 330.5 386.3 331.4 386.2 332.3 386 333.2 385.2 335.6 384.15 338.9
M 1061.65 332.55
Q 1061.6 329.1 1061.3 326.45 1061.15 326.3 1060.8 326.15 1060.4 325.95 1060 325.8 1059.6 325.65 1059.2 325.55 1058.8 325.5 1058.6 325.5 1058.4 325.55 1058.1 326.25 1057.8 326.9 1057.8 327.3
L 1059.35 369.95
Q 1059.35 370.45 1059.85 370.65 1060.35 370.9 1060.75 370.9 1061.75 370.9 1062.35 370.1 1062.95 369.3 1062.95 368.35 1062.85 366.5 1062.5 364.7 1062.15 362.85 1062.15 361.15 1062.15 359.45 1062.7 358 1063.25 356.5 1064.75 355.4 1065.55 354.85 1067.45 353.75 1069.4 352.65 1071.55 351.45 1073.7 350.25 1075.6 349.25 1077.5 348.2 1078.3 347.65 1078.35 348.4 1078.5 349.85 1078.65 351.35 1078.8 353.15 1078.95 355 1079.15 357 1079.3 359.05 1079.5 360.9 1079.65 362.7 1079.75 364.2 1079.8 365.7 1079.85 366.45 1080 367.7 1080.2 368.75 1080.45 369.85 1081.65 370.7 1082.5 370.5 1082.9 370.15 1083.25 369.75 1083.35 369.25 1083.45 368.75 1083.45 368.25
L 1083.45 367.15
Q 1083.45 364.6 1083.15 362.1 1082.8 359.65 1082.55 357.1 1082.45 356.05 1082.25 353.9 1082.1 351.8 1081.8 349.15 1081.55 346.45 1081.2 343.45 1080.9 340.5 1080.65 337.8 1080.45 335.1 1080.2 332.95 1080 330.8 1079.85 329.75 1079.8 329.1 1079.75 328.35 1079.65 327.55 1079.35 326.9 1079.05 326.25 1078.55 325.85 1078.05 325.45 1077.15 325.45 1076.4 325.45 1075.85 325.75 1075.3 326.1 1075.45 327.3 1076 329.15 1076.35 330.6 1076.75 332 1076.95 333.25 1077.15 334.5 1077.25 335.75 1077.3 337 1077.3 338.7 1077.4 341.75 1076.25 343.75 1075.15 345.8 1073.2 347.2 1071.3 348.6 1068.65 349.65 1066 350.75 1063.05 351.95 1062.4 349.65 1062.2 346.35 1061.95 343.05 1061.85 339.55 1061.75 336 1061.65 332.55
M 1043 321.65
Q 1041.8 321.05 1040.1 321.05 1037.1 321.05 1034.65 323.25 1032.2 325.45 1030.3 328.9 1028.35 332.35 1027 336.65 1025.6 340.95 1024.65 345.15 1023.75 349.35 1023.3 353 1022.85 356.65 1022.85 358.8 1022.85 360.5 1023.3 362.6 1023.8 364.65 1024.8 366.45 1025.8 368.25 1027.45 369.45 1029.05 370.7 1031.35 370.7 1032.6 371.3 1034.6 370.8 1036.6 370.3 1038.95 368.95 1041.3 367.65 1043.8 365.7 1046.3 363.8 1048.4 361.5 1050.45 359.25 1052 356.9 1053.5 354.5 1053.95 352.4 1053.95 351.35 1053.2 351.15 1052.5 351 1051.65 351 1051.5 351 1051 351.05 1050.55 351.05 1050.4 351.15 1049.65 353.25 1047.9 356.1 1046.15 358.9 1043.8 361.4 1041.45 363.9 1038.75 365.65 1036 367.35 1033.2 367.35 1030.8 367.35 1029.5 366.45 1028.15 365.55 1027.45 364.1 1026.8 362.65 1026.55 360.8 1026.35 359 1026.35 357.05 1026.35 355.6 1026.8 352.65 1027.2 349.65 1028 346.05 1028.8 342.4 1029.95 338.6 1031.15 334.75 1032.65 331.6 1034.2 328.5 1036.05 326.45 1037.95 324.45 1040.15 324.45 1041.25 324.45 1041.9 325.05 1042.55 325.7 1043.2 326.45 1043.8 327.15 1044.6 327.8 1045.35 328.45 1046.6 328.45 1046.6 326.9 1046.2 325.6 1045.85 324.3 1045.05 323.25 1044.25 322.25 1043 321.65
M 1016.3 343
Q 1016.2 339.55 1016.15 336.45 1016.05 333.35 1016 330.9 1015.95 328.5 1015.85 327.3 1015.85 326.85 1015.7 325.4 1015.5 323.95 1015.15 322.45 1014.8 320.95 1014.15 319.75 1013.45 318.55 1012.35 318.55 1011.2 318.55 1010.85 319.45 1010.45 320.3 1010.45 321.3 1011.1 321.85 1011.45 324.4 1011.85 326.95 1012.15 330.65 1012.45 334.35 1012.65 338.6 1012.8 342.85 1012.85 346.75 1012.9 350.65 1012.7 353.7 1012.55 356.8 1012.35 357.9
L 991.9 331.5
Q 991.4 330.9 990.6 330 989.75 329.1 988.8 328.35 987.8 327.65 986.75 327.1 985.75 326.55 984.9 326.55
L 984.9 329.75 989.25 366.45
Q 988.7 367.65 989.2 368.95 989.7 370.25 991.05 370.7 992.5 370.25 992.7 369.4 992.95 368.55 992.95 367.5 992.95 363.65 992.35 359.8 991.75 356 991.15 352.15 990.6 348.25 990.25 344.35 989.9 340.5 990.15 336.6 990.35 336.75 990.7 337.1
L 992.4 338.7
Q 992.7 339 992.85 339.2
L 995.2 342.05
Q 996.8 344 998.8 346.45 1000.85 348.85 1003.05 351.55 1005.25 354.2 1007.25 356.6 1009.2 359.05 1010.8 361 1012.4 363 1013.15 363.85 1012.9 364.9 1012.9 365.55 1012.95 366.25 1013.25 366.65 1013.55 367.1 1014.1 367.25 1014.6 367.45 1015.3 367.45 1016.55 367.45 1017.55 366.8 1018.55 366.15 1018.55 364.85 1018.55 364.05 1018.3 363.3 1018 362.6 1017.7 361.85 1017.4 361.1 1017.05 360.4 1016.75 359.65 1016.75 358.8 1016.7 357.6 1016.65 355.1 1016.6 352.6 1016.5 349.55 1016.4 346.45 1016.3 343
M 980 343.55
Q 980.45 339.15 980.45 334.7 980.65 334.1 980.6 332.7 980.5 331.35 980.15 330.2 979.75 329.05 979 328.45 978.25 327.9 976.9 329.05 976.3 330.3 975.75 333.5 975.25 336.7 974.55 340.8 973.85 344.95 972.95 349.4 972.05 353.85 970.7 357.65 969.3 361.45 967.4 363.95 965.5 366.45 962.85 366.65 961.55 366.65 960.5 365.95 959.45 365.3 958.75 364.3 958.05 363.25 957.7 362.05 957.3 360.85 957.3 359.65
L 957.3 331.3
Q 957.3 330.9 957.05 330.65 956.75 330.4 956.4 330.35 956.05 330.3 955.65 330.3
L 955.1 330.3
Q 954.75 330.3 954.3 330.3 953.85 330.35 953.5 330.5 953.15 330.7 953 331.05 952.9 331.4 952.95 332.1 952.95 332.75 953 334.8 953.1 336.9 953.2 339.6 953.3 342.35 953.4 345.45 953.5 348.6 953.55 351.35 953.65 354.1 953.7 356.15 953.8 358.2 953.85 358.85 954 360.85 954.35 362.8 954.75 364.8 955.6 366.4 956.4 368.05 957.9 369 959.4 369.95 961.8 369.95 964.95 369.95 967.3 368.2 969.65 366.45 971.35 363.85 973.05 361.25 974.2 358.3 975.3 355.3 976 352.85
L 978.65 378.4
Q 978.8 378.4 978.95 378.45
L 979.15 378.5
Q 979.9 378.5 980.3 378.15 980.7 377.8 980.95 377.35 981.2 376.9 981.3 376.35 981.35 375.75 981.35 375.25 981.35 372.45 981.05 369.6 980.8 366.75 980.45 363.9 980.1 361.05 979.8 358.2 979.55 355.3 979.55 352.45 979.55 347.95 980 343.55
M 939.95 316.2
Q 937.55 316 935 316.3 932.5 316.65 930 317.5 927.5 318.35 925.4 319.55 924.95 319.3 924.7 318.8 924.45 318.3 924.25 317.9 924.05 317.5 923.7 317.2 923.4 316.9 922.8 316.9 922.15 316.9 921.35 318 920.5 319.1 919.6 320.55 918.7 321.95 917.9 323.45 917.1 324.9 916.55 325.5 916.5 325.65 916.5 325.7
L 916.5 325.9
Q 916.5 326.5 916.9 326.9 917.3 327.3 917.8 327.3 918.5 327.3 919 327.05 919.45 326.75 920.1 326.45 919.75 336.9 920.1 348.1 920.45 359.3 921.9 369.85 922.35 370.75 923.15 370.75 923.55 370.75 924.05 370.55 924.5 370.35 924.5 369.85
L 924.5 345.95
Q 924.4 345.8 926.15 345 927.9 344.2 930.65 342.85 933.4 341.55 936.65 339.7 939.9 337.9 942.7 335.5 945.5 333.15 947.4 330.25 949.3 327.35 949.4 324.1 948.95 321.55 947.6 319.9 946.2 318.25 944.25 317.35 942.3 316.45 939.95 316.2
M 932.95 319.95
Q 934.5 319.55 935.2 319.55 936.35 319.55 938.2 319.85 940.05 320.15 941.75 320.9 943.5 321.65 944.7 322.75 945.9 323.9 945.9 325.5 944.75 328.5 942.35 330.9 939.95 333.35 937 335.35 934 337.35 930.75 338.9 927.5 340.5 924.5 341.75 923.75 339.9 923.6 337.55 923.4 335.2 923.55 332.8 923.7 330.35 924 328.05 924.3 325.75 924.5 323.85 925 323.05 926.5 322.25 928 321.45 929.7 320.85 931.35 320.3 932.95 319.95
M 851.55 326.55
Q 851.35 326.1 851.05 325.65 850.8 325.25 850.4 324.95 850.05 324.65 849.6 324.65 848.85 324.65 848.2 325.15 847.55 325.7 847.4 326.45 847.4 326.55 847.55 326.95 847.7 327.3 847.8 327.7 847.95 328.1 848.15 328.5 848.3 328.9 848.3 328.95 848.35 329.25 848.45 329.9 848.6 330.55 848.75 331.2 848.9 331.9 849.05 332.45 849.15 333 849.15 333.2
L 849.4 336.1
Q 849.6 338.2 849.9 341.1 850.0748046875 343.128515625 850.25 345.3 849.2583984375 345.16484375 847.8 345.4 846.3 345.65 844.7 346.15 843.1 346.6 841.75 347.1 840.35 347.6 839.6 347.65 838.95 346.45 838.25 344.65 837.5 342.8 836.65 340.65 835.85 338.5 835 336.2 834.2 333.9 833.35 331.6 832.5 329.35 831.8 327.35 831.05 325.35 830.35 323.85 829.95 323.35 829.6 322.65 829.25 321.9 828.9 321.25 828.5 320.55 828 320.05 827.55 319.5 826.75 319.5 826.3 319.5 825.7 319.65 825.1 319.75 825.05 320.45 823.85 329.5 823.15 336.3 822.4 343.15 821.85 348.2 821.3 353.25 821 356.8 820.65 360.3 820.45 362.7 820.2 365.1 820.05 366.55 819.9 368.05 819.7 368.95
L 823.25 368.95
Q 823.35 367.45 823.6 365.95 823.7 364.8 823.8 363.45 823.95 362.1 824.05 361.3 824.35 359.3 825.7 358.15 827.05 357 828.9 356.3 830.8 355.6 832.8 355.1 834.8 354.65 836.25 354 837.35 355.45 838.1 357.6 838.8 359.8 839.5 362.3 840.2 364.8 841 367.25 841.8 369.75 842.95 371.7
L 844.75 369.15 840 351.15
Q 840 350.95 841.05 350.5 842.05 350.05 843.45 349.65 844.85 349.2 846.05 348.85 847.25 348.45 847.6 348.45 848.15 348.45 848.6 348.65 849.05 348.8 849.5 348.95 849.9 349.15 850.3 349.3 850.4716796875 349.3572265625 850.65 349.4 850.8330078125 351.4966796875 851 353.4 851.3 356.25 851.5 358.45 851.7 360.65 851.75 361.3 851.85 361.85 852.1 363.1 852.3 364.3 852.6 365.65 852.85 366.95 853.15 368.15 853.45 369.35 853.55 369.85 853.65 369.85 853.8 369.85
L 854 369.9
Q 855.5 369.9 855.95 369.85 856.4 369.85 856.4 368.65 856.4 366.85 856.15 365 855.9 363.2 855.35 361.3
L 880.15 361.3
Q 881.55 361.3 882.05 360.35 882.6 359.4 882.6 358.4 876.15 358.4 871.7 358.3 867.3 358.25 864.35 358.1 861.45 358 859.8 357.85 858.15 357.7 857.35 357.5 856.55 357.25 856.35 357.1 856.2 356.9 856.2 356.65 856.75 354.3 857.35 352.65 858 350.95 858.9 349.35 859.8 347.8 861 346.1 862.2 344.4 864 342.05 865.75 339.7 868.1 336.4 870.45 333.1 873.6 328.3 872.7 326.95 871.1 327.95 869.5 328.9 867.5 331.2 865.5 333.5 863.35 336.6 861.25 339.75 859.4 342.65 857.6 345.55 856.25 347.7 854.9 349.85 854.45 350.25
L 851.75 327.3
Q 851.75 326.95 851.55 326.55
M 827.3 333.5
Q 827.45 332 827.55 330.9
L 827.65 329.75
Q 828.5 329.25 828.9 329.45 829.35 329.7 829.4 329.75 830.45 332.1 831.35 334.55 832.25 337 833 339.6 833.75 342.15 834.4 344.65 835.1 347.15 835.65 349.45 835 350.55 833.85 351.35 832.7 352.2 831.35 352.75 829.95 353.3 828.45 353.65 826.95 354 825.65 354 825.65 350.2 826.05 346.55 826.4 342.95 826.75 339.2 826.85 338.15 827 336.6 827.2 335 827.3 333.5
M 786.8 323.9
Q 786.55 324.35 786.55 324.7 786.55 324.85 786.65 325.15 786.8 325.5 786.95 325.95 787.1 326.35 787.25 326.75 787.45 327.15 787.45 327.3 788.25 332.6 788.7 337.8 789.1 342.95 789.25 348.05 789.4 353.2 789.3 358.4 789.25 363.6 789.25 368.95 789.95 369.65 790.5 369.75 791.05 369.9 791.95 369.9 794.2 369.35 797.4 367.65 800.55 365.95 803.8 363.9 807.05 361.8 810.2 359.7 813.35 357.6 815.75 356.2 816.75 355.7 816.75 354.9 816.75 354.1 816.2 353.85 815.65 353.6 814.95 353.6 813.75 353.8 812 354.85 810.2 355.9 808.2 357.25 806.15 358.6 804 360.1 801.85 361.6 799.85 362.7 797.85 363.85 796.2 364.5 794.55 365.1 793.65 364.8
L 793.65 351.95
Q 793.65 351.05 794.9 350.05 796.15 349.05 798.05 348.05 799.9 347.05 802.1 346 804.25 344.95 806.15 343.8 808 342.65 809.25 341.55 810.5 340.4 810.5 339.2 809.95 338.5 809.35 338.5 808.75 338.55 808.2 338.9 807.65 339.2 807.3 339.6
L 806.95 340 792.7 347.65
Q 792.65 347 792.55 345.15 792.4 343.35 792.3 341.3 792.15 339.3 792.05 337.5 791.95 335.7 791.85 334.95
L 791.85 332.35 811.35 322.95
Q 812 322.65 812.25 322.15 812.5 321.7 812.5 321.1 810.1 321.1 807.35 321.8 804.6 322.5 801.9 323.55 799.15 324.55 796.55 325.8 793.95 327.05 791.85 328.1 791.85 327.7 791.75 326.75 791.65 325.85 791.4 324.85 791.1 323.9 790.6 323.1 790.05 322.3 789.25 322.1 788.75 322.05 788.25 322.3 787.8 322.55 787.4 323 787 323.45 786.8 323.9
M 723.1 331.5
Q 724.95 334.3 726.35 337.7 727.7 341.1 728.7 344.75 729.75 348.45 730.65 352.25 731.55 356 732.45 359.4 733.4 362.85 734.55 365.75 735.7 368.65 737.3 370.7 737.15 370.85 737.5 371.15 737.9 371.45 738.65 371.55 739.4 371.65 740.4 371.45 741.35 371.25 742.3 370.35 743.25 369.5 744.05 367.75 744.85 365.95 745.25 363.05
L 754.1 334.95
Q 756.6 342.95 759.65 350.1 762.7 357.25 766.55 363.85 767.35 365.7 768.05 366.35 768.7 366.95 769.3 366.8 769.9 366.65 770.35 365.85 770.8 365.05 771.15 363.95 771.5 362.85 771.7 361.7 771.9 360.5 771.9 359.65
L 781.6 322.1
Q 781.1 321.05 780.55 320.55 780 320.1 779.5 320.1 778.95 320.1 778.6 320.45 778.2 320.75 778.05 321.3
L 768.3 359.65
Q 766.3 356.65 764.8 353 763.3 349.4 762.1 345.75 760.9 342.05 759.95 338.7 758.95 335.35 758.1 332.8 757.2 330.3 756.4 328.95 755.55 327.65 754.6 328.05 753.35 328.05 752.85 328.55 752.3 329.05 752.1 329.75 751.9 330.5 751.8 331.4 751.7 332.3 751.5 333.2 750.7 335.6 749.65 338.9 748.55 342.2 747.4 345.85 746.2 349.45 745 353 743.8 356.6 742.75 359.5 741.7 362.4 741 364.3 740.25 366.25 740 366.45 737.15 358 735.15 351.95 733.2 345.95 731.85 341.8 730.55 337.7 729.75 335.2 728.95 332.75 728.4 331.3 727.85 329.9 727.5 329.3 727.1 328.7 726.55 328.3 726.15 328.5 725.6 328.95 725.1 329.35 724.55 329.8 724.05 330.3 723.65 330.7 723.2 331.15 723.1 331.5
M 1229.6 133
Q 1229.55 129.55 1229.25 126.9 1229.1 126.75 1228.75 126.6 1228.35 126.4 1227.95 126.25 1227.55 126.1 1227.15 126 1226.75 125.95 1226.55 125.95 1226.35 126 1226.05 126.7 1225.75 127.35 1225.75 127.75
L 1227.3 170.4
Q 1227.3 170.9 1227.8 171.1 1228.3 171.35 1228.7 171.35 1229.7 171.35 1230.3 170.55 1230.9 169.75 1230.9 168.8 1230.8 166.95 1230.45 165.15 1230.1 163.3 1230.1 161.6 1230.1 159.9 1230.65 158.45 1231.2 156.95 1232.7 155.85 1233.5 155.3 1235.4 154.2 1237.35 153.1 1239.5 151.9 1241.65 150.7 1243.55 149.7 1245.45 148.65 1246.25 148.1 1246.3 148.85 1246.45 150.3 1246.6 151.8 1246.75 153.6 1246.9 155.45 1247.1 157.45 1247.25 159.5 1247.45 161.35 1247.6 163.15 1247.7 164.65 1247.75 166.15 1247.8 166.9 1247.95 168.15 1248.15 169.2 1248.4 170.3 1249.6 171.15 1250.45 170.95 1250.85 170.6 1251.2 170.2 1251.3 169.7 1251.4 169.2 1251.4 168.7
L 1251.4 167.6
Q 1251.4 165.05 1251.1 162.55 1250.75 160.1 1250.5 157.55 1250.4 156.5 1250.2 154.35 1250.05 152.25 1249.75 149.6 1249.5 146.9 1249.15 143.9 1248.85 140.95 1248.6 138.25 1248.4 135.55 1248.15 133.4 1247.95 131.25 1247.8 130.2 1247.75 129.55 1247.7 128.8 1247.6 128 1247.3 127.35 1247 126.7 1246.5 126.3 1246 125.9 1245.1 125.9 1244.35 125.9 1243.8 126.2 1243.25 126.55 1243.4 127.75 1243.95 129.6 1244.3 131.05 1244.7 132.45 1244.9 133.7 1245.1 134.95 1245.2 136.2 1245.25 137.45 1245.25 139.15 1245.35 142.2 1244.2 144.2 1243.1 146.25 1241.15 147.65 1239.25 149.05 1236.6 150.1 1233.95 151.2 1231 152.4 1230.35 150.1 1230.15 146.8 1229.9 143.5 1229.8 140 1229.7 136.45 1229.6 133
M 1213 123.7
Q 1212.2 122.7 1210.95 122.1 1209.75 121.5 1208.05 121.5 1205.05 121.5 1202.6 123.7 1200.15 125.9 1198.25 129.35 1196.3 132.8 1194.95 137.1 1193.55 141.4 1192.6 145.6 1191.7 149.8 1191.25 153.45 1190.8 157.1 1190.8 159.25 1190.8 160.95 1191.25 163.05 1191.75 165.1 1192.75 166.9 1193.75 168.7 1195.4 169.9 1197 171.15 1199.3 171.15 1200.55 171.75 1202.55 171.25 1204.55 170.75 1206.9 169.4 1209.25 168.1 1211.75 166.15 1214.25 164.25 1216.35 161.95 1218.4 159.7 1219.95 157.35 1221.45 154.95 1221.9 152.85 1221.9 151.8 1221.15 151.6 1220.45 151.45 1219.6 151.45 1219.45 151.45 1218.95 151.5 1218.5 151.5 1218.35 151.6 1217.6 153.7 1215.85 156.55 1214.1 159.35 1211.75 161.85 1209.4 164.35 1206.7 166.1 1203.95 167.8 1201.15 167.8 1198.75 167.8 1197.45 166.9 1196.1 166 1195.4 164.55 1194.75 163.1 1194.5 161.25 1194.3 159.45 1194.3 157.5 1194.3 156.05 1194.75 153.1 1195.15 150.1 1195.95 146.5 1196.75 142.85 1197.9 139.05 1199.1 135.2 1200.6 132.05 1202.15 128.95 1204 126.9 1205.9 124.9 1208.1 124.9 1209.2 124.9 1209.85 125.5 1210.5 126.15 1211.15 126.9 1211.75 127.6 1212.55 128.25 1213.3 128.9 1214.55 128.9 1214.55 127.35 1214.15 126.05 1213.8 124.75 1213 123.7
M 1178.75 119.9
Q 1178.35 120.75 1178.35 121.75 1179 122.3 1179.35 124.85 1179.75 127.4 1180.05 131.1 1180.35 134.8 1180.55 139.05 1180.7 143.3 1180.75 147.2 1180.8 151.1 1180.6 154.15 1180.45 157.25 1180.25 158.35
L 1159.8 131.95
Q 1159.3 131.35 1158.5 130.45 1157.65 129.55 1156.7 128.8 1155.7 128.1 1154.65 127.55 1153.65 127 1152.8 127
L 1152.8 130.2 1157.15 166.9
Q 1156.6 168.1 1157.1 169.4 1157.6 170.7 1158.95 171.15 1160.4 170.7 1160.6 169.85 1160.85 169 1160.85 167.95 1160.85 164.1 1160.25 160.25 1159.65 156.45 1159.05 152.6 1158.5 148.7 1158.15 144.8 1157.8 140.95 1158.05 137.05 1158.25 137.2 1158.6 137.55
L 1160.3 139.15
Q 1160.6 139.45 1160.75 139.65
L 1163.1 142.5
Q 1164.7 144.45 1166.7 146.9 1168.75 149.3 1170.95 152 1173.15 154.65 1175.15 157.05 1177.1 159.5 1178.7 161.45 1180.3 163.45 1181.05 164.3 1180.8 165.35 1180.8 166 1180.85 166.7 1181.15 167.1 1181.45 167.55 1182 167.7 1182.5 167.9 1183.2 167.9 1184.45 167.9 1185.45 167.25 1186.45 166.6 1186.45 165.3 1186.45 164.5 1186.2 163.75 1185.9 163.05 1185.6 162.3 1185.3 161.55 1184.95 160.85 1184.65 160.1 1184.65 159.25 1184.6 158.05 1184.55 155.55 1184.5 153.05 1184.4 150 1184.3 146.9 1184.2 143.45 1184.1 140 1184.05 136.9 1183.95 133.8 1183.9 131.35 1183.85 128.95 1183.75 127.75 1183.75 127.3 1183.6 125.85 1183.4 124.4 1183.05 122.9 1182.7 121.4 1182.05 120.2 1181.35 119 1180.25 119 1179.1 119 1178.75 119.9
M 1147.95 144
Q 1148.4 139.6 1148.4 135.15 1148.6 134.55 1148.55 133.15 1148.45 131.8 1148.1 130.65 1147.7 129.5 1146.95 128.9 1146.2 128.35 1144.85 129.5 1144.25 130.75 1143.7 133.95 1143.2 137.15 1142.5 141.25 1141.8 145.4 1140.9 149.85 1140 154.3 1138.65 158.1 1137.25 161.9 1135.35 164.4 1133.45 166.9 1130.8 167.1 1129.5 167.1 1128.45 166.4 1127.4 165.75 1126.7 164.75 1126 163.7 1125.65 162.5 1125.25 161.3 1125.25 160.1
L 1125.25 131.75
Q 1125.25 131.35 1125 131.1 1124.7 130.85 1124.35 130.8 1124 130.75 1123.6 130.75
L 1123.05 130.75
Q 1122.7 130.75 1122.25 130.75 1121.8 130.8 1121.45 130.95 1121.1 131.15 1120.95 131.5 1120.85 131.85 1120.9 132.55 1120.9 133.2 1120.95 135.25 1121.05 137.35 1121.15 140.05 1121.25 142.8 1121.35 145.9 1121.45 149.05 1121.5 151.8 1121.6 154.55 1121.65 156.6 1121.75 158.65 1121.8 159.3 1121.95 161.3 1122.3 163.25 1122.7 165.25 1123.55 166.85 1124.35 168.5 1125.85 169.45 1127.35 170.4 1129.75 170.4 1132.9 170.4 1135.25 168.65 1137.6 166.9 1139.3 164.3 1141 161.7 1142.15 158.75 1143.25 155.75 1143.95 153.3
L 1146.6 178.85
Q 1146.75 178.85 1146.9 178.9
L 1147.1 178.95
Q 1147.85 178.95 1148.25 178.6 1148.65 178.25 1148.9 177.8 1149.15 177.35 1149.25 176.8 1149.3 176.2 1149.3 175.7 1149.3 172.9 1149 170.05 1148.75 167.2 1148.4 164.35 1148.05 161.5 1147.75 158.65 1147.5 155.75 1147.5 152.9 1147.5 148.4 1147.95 144
M 1102.9 116.75
Q 1100.4 117.1 1097.9 117.95 1095.4 118.8 1093.3 120 1092.85 119.75 1092.6 119.25 1092.35 118.75 1092.15 118.35 1091.95 117.95 1091.6 117.65 1091.3 117.35 1090.7 117.35 1090.05 117.35 1089.25 118.45 1088.4 119.55 1087.5 121 1086.6 122.4 1085.8 123.9 1085 125.35 1084.45 125.95 1084.4 126.1 1084.4 126.15
L 1084.4 126.35
Q 1084.4 126.95 1084.8 127.35 1085.2 127.75 1085.7 127.75 1086.4 127.75 1086.9 127.5 1087.35 127.2 1088 126.9 1087.65 137.35 1088 148.55 1088.35 159.75 1089.8 170.3 1090.25 171.2 1091.05 171.2 1091.45 171.2 1091.95 171 1092.4 170.8 1092.4 170.3
L 1092.4 146.4
Q 1092.3 146.25 1094.05 145.45 1095.8 144.65 1098.55 143.3 1101.3 142 1104.55 140.15 1107.8 138.35 1110.6 135.95 1113.4 133.6 1115.3 130.7 1117.2 127.8 1117.3 124.55 1116.85 122 1115.5 120.35 1114.1 118.7 1112.15 117.8 1110.2 116.9 1107.85 116.65 1105.45 116.45 1102.9 116.75
M 1100.85 120.4
Q 1102.4 120 1103.1 120 1104.25 120 1106.1 120.3 1107.95 120.6 1109.65 121.35 1111.4 122.1 1112.6 123.2 1113.8 124.35 1113.8 125.95 1112.65 128.95 1110.25 131.35 1107.85 133.8 1104.9 135.8 1101.9 137.8 1098.65 139.35 1095.4 140.95 1092.4 142.2 1091.65 140.35 1091.5 138 1091.3 135.65 1091.45 133.25 1091.6 130.8 1091.9 128.5 1092.2 126.2 1092.4 124.3 1092.9 123.5 1094.4 122.7 1095.9 121.9 1097.6 121.3 1099.25 120.75 1100.85 120.4
M 1018.4 146.5
Q 1020.15 143.1 1022.4 139.95 1024.65 136.75 1027.15 133.65 1027.8 133 1029.65 132.3 1031.5 131.6 1033.55 130.95 1035.55 130.35 1037.1 129.8 1038.65 129.3 1038.65 128.95 1038.65 128.2 1038.3 127.8 1037.95 127.35 1037.45 127.15 1036.9 126.95 1036.35 126.85 1035.75 126.75 1035.25 126.75 1032 126.75 1028.85 128.75 1025.7 130.75 1022.85 134.05 1020 137.35 1017.65 141.35 1015.25 145.4 1013.5 149.5 1011.8 153.55 1010.9 157.25 1010.05 160.95 1010.3 163.5 1010.4 165.3 1011.55 166.6 1012.7 167.9 1014.25 168.75 1015.8 169.6 1017.6 170 1019.4 170.35 1020.9 170.35 1023.85 170.35 1026.45 169.25 1029.1 168.15 1031.55 166.5 1034 164.85 1036.2 162.85 1038.4 160.9 1040.4 159.25 1040.3 160.35 1040.2 162.05 1040.1 163.7 1040 165.6 1039.9 167.5 1039.9 169.5 1039.9 171.5 1040.1 173.3 1040.3 175.1 1040.85 176.55 1041.35 178 1042.2 178.8
L 1044.9 177.05
Q 1044.4 173.9 1044.05 169.85 1043.7 165.8 1043.8 161.75 1043.85 157.7 1044.45 153.9 1045.1 150.1 1046.55 147.3 1046.7 147.25 1047.1 147 1047.5 146.8 1047.95 146.5 1048.4 146.25 1048.8 146 1049.2 145.7 1049.25 145.6 1049.6 144.85 1049.4 144.5 1049.25 144.1 1048.85 144 1048.4 143.85 1047.95 143.85
L 1047.15 143.85
Q 1046.25 143.85 1044.7 144 1043.1 144.1 1041.2 144.45 1039.35 144.8 1037.4 145.25 1035.45 145.7 1033.9 146.3 1032.35 146.85 1031.35 147.5 1030.35 148.2 1030.35 149
L 1041.15 149
Q 1039.75 152.05 1037.75 155 1035.75 157.95 1033.3 160.3 1030.85 162.65 1028.05 164.2 1025.3 165.75 1022.5 166 1020.9 166 1019.35 165.9 1017.75 165.8 1016.5 165.3 1015.3 164.85 1014.55 163.8 1013.8 162.75 1013.8 160.9 1014.2 157.1 1015.4 153.5 1016.65 149.9 1018.4 146.5
M 1002.8 122.9
Q 1002.45 121.4 1001.8 120.2 1001.1 119 1000 119 998.85 119 998.5 119.9 998.1 120.75 998.1 121.75 998.75 122.3 999.1 124.85 999.5 127.4 999.8 131.1 1000.1 134.8 1000.3 139.05 1000.45 143.3 1000.5 147.2 1000.55 151.1 1000.35 154.15 1000.2 157.25 1000 158.35
L 979.55 131.95
Q 979.05 131.35 978.25 130.45 977.4 129.55 976.45 128.8 975.45 128.1 974.4 127.55 973.4 127 972.55 127
L 972.55 130.2 976.9 166.9
Q 976.35 168.1 976.85 169.4 977.35 170.7 978.7 171.15 980.15 170.7 980.35 169.85 980.6 169 980.6 167.95 980.6 164.1 980 160.25 979.4 156.45 978.8 152.6 978.25 148.7 977.9 144.8 977.55 140.95 977.8 137.05 978 137.2 978.35 137.55
L 980.05 139.15
Q 980.35 139.45 980.5 139.65
L 982.85 142.5
Q 984.45 144.45 986.45 146.9 988.5 149.3 990.7 152 992.9 154.65 994.9 157.05 996.85 159.5 998.45 161.45 1000.05 163.45 1000.8 164.3 1000.55 165.35 1000.55 166 1000.6 166.7 1000.9 167.1 1001.2 167.55 1001.75 167.7 1002.25 167.9 1002.95 167.9 1004.2 167.9 1005.2 167.25 1006.2 166.6 1006.2 165.3 1006.2 164.5 1005.95 163.75 1005.65 163.05 1005.35 162.3 1005.05 161.55 1004.7 160.85 1004.4 160.1 1004.4 159.25 1004.35 158.05 1004.3 155.55 1004.25 153.05 1004.15 150 1004.05 146.9 1003.95 143.45 1003.85 140 1003.8 136.9 1003.7 133.8 1003.65 131.35 1003.6 128.95 1003.5 127.75 1003.5 127.3 1003.35 125.85 1003.15 124.4 1002.8 122.9
M 969.2 147.4
Q 969.65 143.2 969.35 139.05 969 134.95 968 131.6 964.95 126.55 961.15 125.5 957.4 124.5 953.9 127.6 950.4 130.75 947.75 138.05 945.1 145.3 944.3 156.9 944.3 158.85 944.75 161.25 945.2 163.7 946.25 165.9 947.25 168.15 949 169.7 950.75 171.2 953.3 171.2 956.9 170.75 959.65 168.5 962.45 166.3 964.45 163.05 966.45 159.75 967.6 155.7 968.75 151.65 969.2 147.4
M 949.85 144.9
Q 950.6 141.9 951.55 139.05 952.55 136.15 953.5 133.4 956.85 130.05 959.2 129.75 961.6 129.4 963.05 131.1 964.5 132.8 965.1 136.15 965.7 139.45 965.5 143.4 965.35 147.4 964.5 151.5 963.6 155.65 962.15 159.05 960.7 162.45 958.7 164.55 956.7 166.7 954.25 166.7 952.1 166.7 950.85 165.7 949.55 164.75 948.95 163.25 948.3 161.75 948.15 159.95 947.95 158.15 947.95 156.5 947.95 153.7 948.5 150.8 949.05 147.85 949.85 144.9
M 890.05 122.95
Q 889.55 122.55 888.75 122.55 888.2 122.55 887.75 123 887.35 123.4 887.1 124 886.85 124.55 886.7 125.1 886.6 125.7 886.5 125.95
L 867.95 128.55
Q 867.25 128.6 866.65 129.3 866.1 130 866.1 130.65 866.1 131.65 866.8 131.85 867.55 132 868.25 132 870.5 132 872.75 131.6 874.95 131.2 877.15 130.7 879.4 130.2 881.65 129.8 883.9 129.4 886.1 129.4
L 887.35 129.4
Q 887.9 132.25 888.3 135.8 888.75 139.35 889.1 143.2 889.4 147.05 889.8 151 890.2 154.9 890.6 158.6 891 162.3 891.55 165.5 892.05 168.75 892.75 171.15 893.7 171.2 894.4 171.2 895.1 171.2 895.45 171 895.8 170.8 895.85 170.3 895.85 169.75 895.6 168.8 895.6 164.15 894.9 159.05 894.2 153.9 893.4 148.7 892.6 143.5 892.1 138.4 891.55 133.25 891.85 128.55 892.95 128.35 895.05 128.2 897.2 128.1 899.7 127.9 902.25 127.7 904.9 127.4 907.55 127.1 909.75 126.5 910.0224609375 126.4318359375 910.25 126.35
L 910.4 170.3 913.55 170.3 913.55 149.9
Q 914.3 150.05 916 150.8 917.7 151.5 919.8 152.5 921.9 153.5 924.25 154.65 926.6 155.75 928.75 156.75 930.85 157.7 932.55 158.45 934.25 159.25 935 159.5 935.2 159.55 936 159.95 936.8 160.3 937.65 160.75 938.55 161.25 939.35 161.6 940.1 161.95 940.25 162.05 940.35 162.05 940.5 162.05 940.7 162.1 940.8 162.1 941.15 162.1 941.55 161.8 941.9 161.5 942.25 161.1 942.6 160.7 942.8 160.25 942.95 159.75 942.95 159.5 942.95 159.25 942.5 158.95 942.05 158.7 941.6 158.35 940.95 158.1 940.25 157.75 939.45 157.5 937.5 156.6 935.55 155.7 933.15 154.55 930.7 153.4 927.95 152 925.25 150.6 922.7 149.35 920.2 148.1 918.05 147.1 915.95 146.05 914.85 145.6 916.1 144.3 918.6 142.7 921.1 141.15 924.1 139.3 927.1 137.45 930.25 135.55 933.4 133.6 935.95 131.65 938.55 129.7 940.1 127.8 941.65 125.95 941.5 124.3 941.35 122.7 939.1 121.3 936.8 119.95 931.65 118.95 928.35 118.6 925.8 119.3 923.2 119.95 921.15 120.95 919.05 121.95 917.55 122.9 916 123.9 914.85 124.15
L 914.85 118.3
Q 914.85 117.65 914.15 117.55 913.45 117.45 913.1 117.45 913.05 117.45 912.6 117.35 912.15 117.3 911.65 117.25 911.15 117.25 910.75 117.15 910.35 117.1 910.25 117.1
L 910.25 123.4
Q 908.8125 123.556640625 906.9 123.7 904.85 123.9 902.65 124.1 900.45 124.35 898.45 124.55 896.5 124.75 894.95 124.9 893.45 125.1 892.75 125.15
L 892.2 125.15
Q 891.8 125.15 891.5 124.75 891.2 124.35 890.9 123.85 890.55 123.35 890.05 122.95
M 931.65 122.55
Q 935.05 123.15 936.15 124.2 937.2 125.3 936.7 126.6 936.15 127.9 934.35 129.4 932.5 130.95 930.1 132.5 927.65 134.05 924.9 135.55 922.2 137 919.85 138.2 917.45 139.4 915.8 140.2 914.15 141 913.85 141.35 913.85 139.85 914 138.15 914.1 136.4 914.25 134.65 914.45 132.95 914.55 131.35 914.7 129.75 914.85 128.55 916.1 127 918.15 125.85 920.25 124.7 922.65 123.9 925 123.1 927.4 122.75 929.8 122.4 931.65 122.55
M 851.65 127
Q 853.5 127 854.85 126.2 856.15 125.35 856.15 123.4 856.15 122.6 855.8 122.2 855.45 121.8 854.95 121.7 854.4 121.6 853.7 121.65 853.05 121.7 852.4 121.7 850.05 121.7 847.3 122.55 844.6 123.4 841.8 124.95 839.05 126.5 836.5 128.55 834 130.6 832 133 830.05 135.4 828.85 137.95 827.7 140.55 827.7 143.1 827.7 145.7 829.05 147.5 830.4 149.3 832.65 150.5 834.9 151.65 837.75 152.3 840.65 152.9 843.65 153.35 846.65 153.75 849.55 154 852.4 154.25 854.65 154.6 856.9 154.95 858.25 155.5 859.6 156.05 859.6 157.05 858.55 158.7 856.4 159.95 854.2 161.25 851.6 162.25 848.95 163.25 846.1 164.05 843.25 164.85 840.9 165.5 838.55 166.15 836.95 166.75 835.35 167.35 835.25 168 834.95 169 835.4 169.4 835.85 169.8 836.5 169.8 838.6 169.6 841.65 168.85 844.7 168.1 848 167 851.25 165.9 854.3 164.55 857.4 163.15 859.65 161.8 861.9 160.45 862.95 159.05 864.05 157.7 863.3 156.65 863.3 154.9 861.95 153.9 860.6 152.9 858.35 152.3 856.1 151.7 853.15 151.5 850.25 151.25 847.3 151 844.3 150.7 841.4 150.3 838.5 149.9 836.25 149.1 834 148.25 832.65 146.8 831.3 145.4 831.3 143.05 831.3 141.45 832.15 139.45 833 137.45 834.45 135.45 835.85 133.45 837.7 131.6 839.6 129.75 841.55 128.3 843.55 126.9 845.45 126 847.35 125.15 848.95 125.15
L 851.65 127
M 370.4 117.95
Q 367.9 118.8 365.8 120 365.35 119.75 365.1 119.25 364.85 118.75 364.65 118.35 364.45 117.95 364.1 117.65 363.8 117.35 363.2 117.35 362.55 117.35 361.75 118.45 360.9 119.55 360 121 359.1 122.4 358.3 123.9 357.5 125.35 356.95 125.95 356.9 126.1 356.9 126.15
L 356.9 126.35
Q 356.9 126.95 357.3 127.35 357.7 127.75 358.2 127.75 358.9 127.75 359.4 127.5 359.85 127.2 360.5 126.9 360.15 137.35 360.5 148.55 360.85 159.75 362.3 170.3 362.75 171.2 363.55 171.2 363.95 171.2 364.45 171 364.9 170.8 364.9 170.3
L 364.9 146.4
Q 364.8 146.25 366.55 145.45 368.3 144.65 371.05 143.3 373.8 142 377.05 140.15 380.3 138.35 383.1 135.95 385.9 133.6 387.8 130.7 389.7 127.8 389.8 124.55 389.35 122 388 120.35 386.6 118.7 384.65 117.8 382.7 116.9 380.35 116.65 377.95 116.45 375.4 116.75 372.9 117.1 370.4 117.95
M 366.9 122.7
Q 368.4 121.9 370.1 121.3 371.75 120.75 373.35 120.4 374.9 120 375.6 120 376.75 120 378.6 120.3 380.45 120.6 382.15 121.35 383.9 122.1 385.1 123.2 386.3 124.35 386.3 125.95 385.15 128.95 382.75 131.35 380.35 133.8 377.4 135.8 374.4 137.8 371.15 139.35 367.9 140.95 364.9 142.2 364.15 140.35 364 138 363.8 135.65 363.95 133.25 364.1 130.8 364.4 128.5 364.7 126.2 364.9 124.3 365.4 123.5 366.9 122.7
M 346.85 120.9
Q 346.75 119.95 346.5 119.55 346.25 119.15 345.65 119.15 345 119.15 344.25 119.4 343.5 119.7 343.35 120 340.85 127.5 339.1 132.65 337.4 137.85 336.2 141.25 335.05 144.65 334.35 146.6 333.7 148.5 333.35 149.45 332.95 150.4 332.75 150.6 332.55 150.8 332.25 150.8 331.7 150 330.65 148.15 329.65 146.3 328.4 143.95 327.15 141.6 325.8 138.95 324.45 136.35 323.2 133.95
L 320.95 129.6
Q 320 127.75 319.45 126.9 318.75 125.75 317.9 124.35 317 122.95 315.9 121.8 314.8 120.6 313.45 119.85 312.1 119.1 310.45 119.1 309.7 119.1 309.2 119.4 308.7 119.7 308.8 120.9 310.25 127.1 310.7 133.3 311.2 139.55 311.25 145.7 311.35 151.9 311.4 158.05 311.4 164.25 312.05 170.15 312.65 171 313.6 171.25 314.55 171.5 315.3 171.2 316.1 170.95 316.55 170.4 317 169.9 316.75 169.3 316.75 164.55 316.2 159 315.65 153.45 315 147.7 314.3 142 313.75 136.4 313.2 130.8 313.2 126.15 314.6 126.15 315.25 127.05 315.9 127.95 316.75 129.4 317.25 130.35 318.3 132.35 319.4 134.35 320.65 136.85 321.95 139.35 323.4 142.1 324.85 144.9 326.15 147.45 327.5 150 328.5 152 329.5 154.05 330.05 154.95 330.8 157.05 331.75 156.85 332.75 156.7 333.85 155.1 334.95 153.5 336.05 150.75 337.2 148 338.3 144.8 339.4 141.6 340.35 138.35 341.25 135.15 342.1 132.55 342.9 130 343.45 128.4 343.95 126.75 344.25 126.9
L 348.25 171.2 353.05 169.4
Q 351.35 163.85 350.45 157.65 349.5 151.45 348.9 145.15 348.25 138.85 347.9 132.7 347.5 126.55 346.85 120.9
M 304 144
Q 304.45 139.6 304.45 135.15 304.65 134.55 304.6 133.15 304.5 131.8 304.15 130.65 303.75 129.5 303 128.9 302.25 128.35 300.9 129.5 300.3 130.75 299.75 133.95 299.25 137.15 298.55 141.25 297.85 145.4 296.95 149.85 296.05 154.3 294.7 158.1 293.3 161.9 291.4 164.4 289.5 166.9 286.85 167.1 285.55 167.1 284.5 166.4 283.45 165.75 282.75 164.75 282.05 163.7 281.7 162.5 281.3 161.3 281.3 160.1
L 281.3 131.75
Q 281.3 131.35 281.05 131.1 280.75 130.85 280.4 130.8 280.05 130.75 279.65 130.75
L 279.1 130.75
Q 278.75 130.75 278.3 130.75 277.85 130.8 277.5 130.95 277.15 131.15 277 131.5 276.9 131.85 276.95 132.55 276.95 133.2 277 135.25 277.1 137.35 277.2 140.05 277.3 142.8 277.4 145.9 277.5 149.05 277.55 151.8 277.65 154.55 277.7 156.6 277.8 158.65 277.85 159.3 278 161.3 278.35 163.25 278.75 165.25 279.6 166.85 280.4 168.5 281.9 169.45 283.4 170.4 285.8 170.4 288.95 170.4 291.3 168.65 293.65 166.9 295.35 164.3 297.05 161.7 298.2 158.75 299.3 155.75 300 153.3
L 302.65 178.85
Q 302.8 178.85 302.95 178.9
L 303.15 178.95
Q 303.9 178.95 304.3 178.6 304.7 178.25 304.95 177.8 305.2 177.35 305.3 176.8 305.35 176.2 305.35 175.7 305.35 172.9 305.05 170.05 304.8 167.2 304.45 164.35 304.1 161.5 303.8 158.65 303.55 155.75 303.55 152.9 303.55 148.4 304 144
M 271.1 143.2
Q 269.7 133.15 268 123.4 267.45 122.5 266.65 122.5 265.95 122.5 265.7 122.8 265.4 123.15 265.3 123.6 265.15 124.1 265.2 124.6 265.2 125.1 265.2 125.4 265.3 130.85 266.05 136.25 266.8 141.6 267.55 146.95 268.35 152.3 268.8 157.7 269.3 163.1 268.9 168.55 268.25 170.75 266.6 171.9 264.95 173 262.7 173 260.2 173 258.3 171.85 256.35 170.7 254.85 168.9 253.35 167.1 252.25 164.95 251.15 162.85 250.25 160.9 250.05 160.9 249.7 161.25 249.35 161.55 249.35 161.75 249.35 164.3 250.4 166.75 251.5 169.2 253.35 171.2 255.15 173.15 257.55 174.3 259.95 175.5 262.6 175.5 265.65 175.5 267.55 174.5 269.5 173.55 270.6 171.9 271.7 170.3 272.1 168 272.5 165.75 272.5 163.1 272.5 153.25 271.1 143.2 Z"/>
</g>

<path id="Layer1_0_1_STROKES" stroke="#CCCCCC" stroke-width="2" stroke-linejoin="round" stroke-linecap="round" fill="none" d="
M 1 1
L 1271.75 1
M 1255.45 439
L 1 439"/>
</defs>

<g transform="matrix( 1, 0, 0, 1, 0,0) ">
<use xlink:href="#Layer1_0_FILL"/>

<use xlink:href="#Layer1_0_1_STROKES"/>
</g>

<g transform="matrix( 1, 0, 0, 1, 0,0) ">
<use xlink:href="#Layer0_0_FILL"/>
</g>
</svg>
